<svg xmlns="http://www.w3.org/2000/svg" viewBox="0 0 36 36">
    <path d="M3.6 0A3.6 3.6 0 0 0 0 3.6v28.8A3.6 3.6 0 0 0 3.6 36h28.8a3.6 3.6 0 0 0 3.6-3.6V3.6A3.6 3.6 0 0 0 32.4 0H3.6zm23.769 3.56a5.191 5.191 0 0 1 4.9 4.69v4.46h-8.637l.843.97h7.794c0 4.49.009 9.78.009 13.69a5.2 5.2 0 0 1-4.988 4.9c-4.645 0-15.758.02-18.931.02a5.352 5.352 0 0 1-4.82-4.84c0-2.26.011-8.73.018-13.77h7.792l.844-.97H3.557c0-1.56.007-3.85.007-4.46a5.031 5.031 0 0 1 1.984-3.57v7.16h5.61V3.57c4.704.03 13.361.07 16.211-.01zM25.4 5.55a1.042 1.042 0 0 0-.945.91v3.7a1.04 1.04 0 0 0 .943.91h3.622a1.031 1.031 0 0 0 .921-.91v-3.7a1.032 1.032 0 0 0-.921-.91H25.4zm-7.479 5.08a7.325 7.325 0 1 0 7.373 7.33 7.35 7.35 0 0 0-7.373-7.33zm0 .82a6.455 6.455 0 1 1-6.453 6.46 6.455 6.455 0 0 1 6.458-6.46zm.06 1.57a4.815 4.815 0 1 0 4.811 4.82 4.818 4.818 0 0 0-4.806-4.82z"/>
</svg>